<svg version="1.2" xmlns="http://www.w3.org/2000/svg" viewBox="0 0 98 24" width="408" height="100">
	<title>fit-logo1-svg</title>
	<style>
		<!-- .s0 { fill: #34ace0 }  -->
		.s0 { fill: #ffffff } 
		.s1 { fill: #ffb142 } 
	</style>
	<g id="layer1">
		<g id="text92">
			<path id="path578" class="s0" d="m43.3 19.5h-1.7v-10.2q0-1.5-1-2.4-1-0.9-2.5-0.9-1.4 0-2.4 1.1-1.1 1-1.1 2.4v10h-1.7v-10q0-1.4-1-2.4-1-1.1-2.4-1.1-1 0-1.8 0.6-0.8 0.5-1.3 1.2-0.4 0.8-0.4 1.6v10.1h-1.7v-14.7h1.7v1.8q0.4-0.6 1-1.2 0.6-0.5 1.3-0.8 0.8-0.3 1.4-0.3 2.8 0 4.4 2.5 0.7-1.1 1.8-1.8 1.2-0.7 2.5-0.7 2.1 0 3.5 1.4 1.4 1.4 1.4 3.6z"/>
			<path id="path580" fill-rule="evenodd" class="s0" d="m53.7 19.9q-2 0-3.8-1-1.8-0.9-2.9-2.8-1.2-1.8-1.2-4 0-0.7 0.3-1.7 0.2-1 0.7-2 0.5-1 1.5-1.9 1-0.9 2.4-1.5 1.4-0.7 3-0.7 1.5 0 3 0.7 1.4 0.6 2.5 1.6 1.1 1.1 1.7 2.5 0.6 1.5 0.6 3 0 1.6-0.6 3-0.6 1.5-1.7 2.5-1.1 1.1-2.5 1.7-1.5 0.6-3 0.6zm0-1.7q1.2 0 2.3-0.4 1.1-0.5 1.9-1.3 0.9-0.9 1.3-2 0.5-1.2 0.5-2.4 0-1.2-0.5-2.3-0.4-1.1-1.3-2-0.8-0.8-1.9-1.3-1.1-0.5-2.3-0.5-0.9 0-1.9 0.3-1 0.4-2.1 1.2-1 0.9-1.5 2.2-0.6 1.2-0.6 2.4 0 1.2 0.5 2.4 0.5 1.1 1.3 1.9 0.8 0.9 1.9 1.4 1.2 0.4 2.4 0.4z"/>
			<path id="path582" class="s0" d="m63.6 1.1q0-0.4 0.3-0.7 0.3-0.4 0.8-0.4 0.5 0 0.8 0.4 0.3 0.3 0.3 0.7 0 0.5-0.3 0.8-0.3 0.4-0.8 0.4-0.5 0-0.8-0.4-0.3-0.3-0.3-0.8zm-2.8 22.7v-1.7h1.3q0.7 0 1.2-0.5 0.5-0.5 0.5-1.3v-15.5h1.8v15.5q0 1.4-1.1 2.5-1 1-2.4 1z"/>
			<path id="path584" fill-rule="evenodd" class="s0" d="m75.9 19.9q-1.9 0-3.7-1-1.8-0.9-3-2.8-1.1-1.8-1.1-4 0-0.7 0.2-1.7 0.2-1 0.8-2 0.5-1 1.5-1.9 0.9-0.9 2.4-1.5 1.4-0.7 2.9-0.7 1.6 0 3 0.7 1.5 0.6 2.6 1.6 1.1 1.1 1.7 2.5 0.6 1.5 0.6 3 0 1.6-0.6 3-0.6 1.5-1.7 2.5-1.1 1.1-2.6 1.7-1.4 0.6-3 0.6zm0-1.7q1.3 0 2.4-0.4 1.1-0.5 1.9-1.3 0.9-0.9 1.3-2 0.5-1.2 0.5-2.4 0-1.2-0.5-2.3-0.4-1.1-1.3-2-0.8-0.8-1.9-1.3-1.1-0.5-2.4-0.5-0.8 0-1.9 0.3-1 0.4-2 1.2-1 0.9-1.6 2.2-0.5 1.2-0.5 2.4 0 1.2 0.5 2.4 0.4 1.1 1.3 1.9 0.8 0.9 1.9 1.4 1.1 0.4 2.3 0.4z"/>
			<path id="path586" class="s0" d="m97.1 8.6h-1.7q0-0.5-0.4-1.1-0.3-0.6-1.2-1-0.9-0.5-2.1-0.5-1.2 0-2.1 0.4-0.9 0.3-1.2 0.8-0.3 0.5-0.3 1 0 0.6 0.2 1.1 0.2 0.5 0.7 0.8 0.4 0.3 0.9 0.5 0.7 0.2 2.7 0.5 2 0.3 2.8 0.6 0.9 0.4 1.3 0.9 0.5 0.6 0.7 1.3 0.3 0.7 0.3 1.5 0 2.1-1.6 3.3-1.6 1.2-4.4 1.2-0.9 0-2-0.2-1-0.3-2-0.9-1-0.7-1.4-1.7-0.5-1-0.5-2h1.8q0 1.4 1.1 2.2 1.1 0.9 3 0.9 2 0 3.1-0.7 1.1-0.8 1.1-2.1 0-0.9-0.4-1.4-0.4-0.5-1.1-0.8-0.7-0.3-2.9-0.6-2-0.3-2.9-0.7-0.9-0.3-1.4-0.9-0.4-0.5-0.7-1.2-0.2-0.7-0.2-1.5 0-1.2 0.6-2.1 0.7-0.9 1.9-1.3 1.2-0.6 2.9-0.6 2.4 0 3.9 1.2 1.5 1.2 1.5 3.1z"/>
		</g>
		<path id="path571" class="s0" d="m3.5 4.8h3v1.7h-3v13h-1.7v-13-1.7-0.9q0-1.4 1-2.4 1-1.1 2.4-1.1h1.3v1.8h-1.3q-0.7 0-1.2 0.5-0.5 0.5-0.5 1.2z"/>
		<path id="path178" class="s1" d="m6.1 19.3q0 0 0-0.1c0-0.1 0.6-1.5 1.3-3.3 0.8-1.8 1.4-3.3 1.4-3.3 0 0-0.2-0.1-1.3-0.1-0.8 0-1.3 0-1.3 0-0.1 0-0.1-0.1-0.1-0.2 0 0 0.8-1.7 1.8-3.8 1.3-2.6 1.9-3.7 1.9-3.7 0.1-0.1 0.1-0.1 2.2-0.1h2l0.1 0.1c0 0 0.1 0.2 0 0.3 0 0-0.7 1-1.4 2.2-0.8 1.2-1.4 2.3-1.4 2.3 0 0 0.2 0 1.5 0h1.5v0.1q0.2 0.1 0 0.3c-0.2 0.3-7.8 9.3-7.9 9.4q-0.1 0.1-0.3-0.1z"/>
		<path id="path573" class="s1" d="m11 1.1q0-0.4 0.4-0.7 0.3-0.4 0.8-0.4 0.4 0 0.8 0.4 0.3 0.3 0.3 0.7 0 0.5-0.3 0.9-0.4 0.3-0.8 0.3-0.5 0-0.8-0.3-0.4-0.4-0.4-0.9z"/>
		<path id="path575" class="s0" d="m19 6.5v9.5q0 0.9 0.5 1.3 0.5 0.5 1.3 0.5h1.3v1.7h-1.3q-1.1 0-2-0.6-0.8-0.5-1.1-1.3-0.4-0.8-0.4-1.6v-9.5-1.7-3.4h1.7v3.4h3.1v1.7z"/>
	</g>
</svg>