<svg version="1.2" xmlns="http://www.w3.org/2000/svg" viewBox="0 0 598 726" width="598" height="726"><style>.a{fill:#b08d57}</style><path fill-rule="evenodd" class="a" d="m347.8 89.5l51.2-88.8h197.1l-89.8 155.5c-11.5-8.8-23.5-16.9-36.1-24.2-12.5-7.3-25.5-13.8-38.8-19.4-13.4-5.6-27.1-10.4-41.1-14.2-13.9-3.9-28.1-6.9-42.5-8.9zm-345.1 373.7c-18.2-149.9 78.4-289.8 225-325.9 146.7-36.1 297.2 42.9 350.7 184.1 53.6 141.2-6.7 300.2-140.4 370.4-10.7 5.6-21.7 10.6-33 14.8-11.2 4.3-22.7 7.9-34.4 10.8-11.7 2.9-23.6 5-35.6 6.5-11.9 1.4-24 2.1-36 2.1-151-0.1-278.2-112.9-296.3-262.8zm294.7 62.3q0.8-0.2 1.6-0.2 0.8 0 1.6 0.2 0.8 0.1 1.6 0.4l84.4 34.3c1.3 0.6 2.8 0.8 4.2 0.6 1.5-0.2 2.9-0.7 4-1.6 1.2-0.8 2.1-2 2.8-3.3 0.6-1.3 0.8-2.7 0.7-4.2l-6.5-90.9q-0.1-0.8 0-1.6 0.1-0.8 0.4-1.6 0.2-0.8 0.6-1.5 0.4-0.7 1-1.4l58.7-69.6q1.3-1.7 1.8-3.9c0.3-1.4 0.2-2.9-0.2-4.2-0.5-1.4-1.3-2.7-2.3-3.7-1.1-0.9-2.4-1.6-3.8-2l-88.5-21.8q-0.8-0.2-1.5-0.6-0.8-0.3-1.4-0.8-0.7-0.5-1.3-1.1-0.5-0.6-1-1.3l-48-77.4c-0.8-1.2-1.9-2.2-3.1-2.9-1.3-0.8-2.7-1.1-4.2-1.1-1.5 0-2.9 0.3-4.2 1.1-1.2 0.7-2.3 1.7-3.1 2.9l-48 77.4q-0.5 0.7-1 1.3-0.6 0.6-1.3 1.1-0.6 0.5-1.4 0.8-0.7 0.4-1.5 0.6l-88.5 21.8c-1.4 0.4-2.7 1.1-3.8 2-1 1-1.8 2.3-2.3 3.7-0.4 1.3-0.5 2.8-0.2 4.2q0.4 2.2 1.8 3.9l58.7 69.6c1.5 1.7 2.2 4 2 6.2l-6.5 90.8c-0.1 1.5 0.1 2.9 0.8 4.3q0.9 1.9 2.7 3.3c1.2 0.8 2.5 1.3 4 1.5 1.4 0.2 2.9 0 4.2-0.6l84.4-34.3q0.8-0.3 1.6-0.4zm-99.9-524.8l51.3 89c-14.4 2.1-28.5 5.2-42.5 9.1-13.9 3.9-27.6 8.7-41 14.4q-20 8.5-38.7 19.5c-12.5 7.3-24.6 15.5-36 24.3l-90.3-156.3z"/></svg>