<svg version="1.2" xmlns="http://www.w3.org/2000/svg" viewBox="0 0 734 734" width="734" height="734"><defs><linearGradient id="P" gradientUnits="userSpaceOnUse"/><linearGradient id="g1" x2="1" href="#P" gradientTransform="matrix(0,726,-726,0,367,4)"><stop stop-color="#cebf7d"/><stop offset="1" stop-color="#14be58f"/></linearGradient><linearGradient id="g2" x2="1" href="#P" gradientTransform="matrix(0,693.253,-693.253,0,367,20.374)"><stop stop-color="#cebf7d"/><stop offset="1" stop-color="#14be58f"/></linearGradient><linearGradient id="g3" x2="1" href="#P" gradientTransform="matrix(0,660.209,-660.209,0,367,36.895)"><stop stop-color="#cebf7d"/><stop offset="1" stop-color="#14be58f"/></linearGradient><linearGradient id="g4" x2="1" href="#P" gradientTransform="matrix(0,627.236,-627.236,0,367,53.382)"><stop stop-color="#cebf7d"/><stop offset="1" stop-color="#14be58f"/></linearGradient><linearGradient id="g5" x2="1" href="#P" gradientTransform="matrix(0,594.268,-594.268,0,367,69.866)"><stop stop-color="#cebf7d"/><stop offset="1" stop-color="#14be58f"/></linearGradient><linearGradient id="g6" x2="1" href="#P" gradientTransform="matrix(0,560.98,-560.98,0,367,86.51)"><stop stop-color="#cebf7d"/><stop offset="1" stop-color="#14be58f"/></linearGradient><linearGradient id="g7" x2="1" href="#P" gradientTransform="matrix(0,528.054,-528.054,0,367,102.973)"><stop stop-color="#cebf7d"/><stop offset="1" stop-color="#14be58f"/></linearGradient><linearGradient id="g8" x2="1" href="#P" gradientTransform="matrix(0,495.22,-495.22,0,367,119.39)"><stop stop-color="#cebf7d"/><stop offset="1" stop-color="#14be58f"/></linearGradient><linearGradient id="g9" x2="1" href="#P" gradientTransform="matrix(0,462.122,-462.122,0,367,135.939)"><stop stop-color="#cebf7d"/><stop offset="1" stop-color="#14be58f"/></linearGradient><linearGradient id="g10" x2="1" href="#P" gradientTransform="matrix(0,429.2,-429.2,0,367,152.4)"><stop stop-color="#cebf7d"/><stop offset="1" stop-color="#14be58f"/></linearGradient><linearGradient id="g11" x2="1" href="#P" gradientTransform="matrix(0,396.062,-396.062,0,367,168.969)"><stop stop-color="#cebf7d"/><stop offset="1" stop-color="#14be58f"/></linearGradient><linearGradient id="g12" x2="1" href="#P" gradientTransform="matrix(0,363.057,-363.057,0,367,185.472)"><stop stop-color="#cebf7d"/><stop offset="1" stop-color="#14be58f"/></linearGradient><linearGradient id="g13" x2="1" href="#P" gradientTransform="matrix(0,330.154,-330.154,0,367,201.923)"><stop stop-color="#cebf7d"/><stop offset="1" stop-color="#14be58f"/></linearGradient><linearGradient id="g14" x2="1" href="#P" gradientTransform="matrix(0,297.078,-297.078,0,367,218.461)"><stop stop-color="#cebf7d"/><stop offset="1" stop-color="#14be58f"/></linearGradient><linearGradient id="g15" x2="1" href="#P" gradientTransform="matrix(0,264.117,-264.117,0,367,234.941)"><stop stop-color="#cebf7d"/><stop offset="1" stop-color="#14be58f"/></linearGradient><linearGradient id="g16" x2="1" href="#P" gradientTransform="matrix(0,231.023,-231.023,0,367,251.488)"><stop stop-color="#cebf7d"/><stop offset="1" stop-color="#14be58f"/></linearGradient><linearGradient id="g17" x2="1" href="#P" gradientTransform="matrix(0,197.993,-197.993,0,367,268.003)"><stop stop-color="#cebf7d"/><stop offset="1" stop-color="#14be58f"/></linearGradient><linearGradient id="g18" x2="1" href="#P" gradientTransform="matrix(0,165.074,-165.074,0,367,284.463)"><stop stop-color="#cebf7d"/><stop offset="1" stop-color="#14be58f"/></linearGradient><linearGradient id="g19" x2="1" href="#P" gradientTransform="matrix(0,132.05,-132.05,0,367,300.975)"><stop stop-color="#cebf7d"/><stop offset="1" stop-color="#14be58f"/></linearGradient><linearGradient id="g20" x2="1" href="#P" gradientTransform="matrix(0,99.031,-99.031,0,367,317.484)"><stop stop-color="#cebf7d"/><stop offset="1" stop-color="#14be58f"/></linearGradient><linearGradient id="g21" x2="1" href="#P" gradientTransform="matrix(0,66.024,-66.024,0,367,333.988)"><stop stop-color="#cebf7d"/><stop offset="1" stop-color="#14be58f"/></linearGradient><linearGradient id="g22" x2="1" href="#P" gradientTransform="matrix(0,33,-33,0,367,350.5)"><stop stop-color="#cebf7d"/><stop offset="1" stop-color="#14be58f"/></linearGradient></defs><style>.a{opacity:.1;fill:none;stroke:url(#g1);stroke-linecap:round;stroke-width:7;stroke-dasharray:1939}.b{opacity:.1;fill:none;stroke:url(#g2);stroke-linecap:round;stroke-width:7;stroke-dasharray:1761.9999999999998}.c{opacity:.1;fill:none;stroke:url(#g3);stroke-linecap:round;stroke-width:7;stroke-dasharray:1594.9999999999998}.d{opacity:.2;fill:none;stroke:url(#g4);stroke-linecap:round;stroke-width:7;stroke-dasharray:1434.9999999999998}.e{opacity:.2;fill:none;stroke:url(#g5);stroke-linecap:round;stroke-width:7;stroke-dasharray:1284}.f{opacity:.3;fill:none;stroke:url(#g6);stroke-linecap:round;stroke-width:7;stroke-dasharray:1141}.g{opacity:.3;fill:none;stroke:url(#g7);stroke-linecap:round;stroke-width:7;stroke-dasharray:1006.9999999999999}.h{opacity:.4;fill:none;stroke:url(#g8);stroke-linecap:round;stroke-width:7;stroke-dasharray:880.9999999999999}.i{opacity:.4;fill:none;stroke:url(#g9);stroke-linecap:round;stroke-width:7;stroke-dasharray:764}.j{opacity:.5;fill:none;stroke:url(#g10);stroke-linecap:round;stroke-width:7;stroke-dasharray:655}.k{opacity:.5;fill:none;stroke:url(#g11);stroke-linecap:round;stroke-width:7;stroke-dasharray:554}.l{opacity:.5;fill:none;stroke:url(#g12);stroke-linecap:round;stroke-width:7;stroke-dasharray:461.99999999999994}.m{opacity:.6;fill:none;stroke:url(#g13);stroke-linecap:round;stroke-width:7;stroke-dasharray:378}.n{opacity:.6;fill:none;stroke:url(#g14);stroke-linecap:round;stroke-width:7;stroke-dasharray:302}.o{opacity:.7;fill:none;stroke:url(#g15);stroke-linecap:round;stroke-width:7;stroke-dasharray:234.99999999999994}.p{opacity:.7;fill:none;stroke:url(#g16);stroke-linecap:round;stroke-width:7;stroke-dasharray:175.99999999999997}.q{opacity:.8;fill:none;stroke:url(#g17);stroke-linecap:round;stroke-width:7;stroke-dasharray:125.99999999999999}.r{opacity:.8;fill:none;stroke:url(#g18);stroke-linecap:round;stroke-width:7;stroke-dasharray:84}.s{opacity:.9;fill:none;stroke:url(#g19);stroke-linecap:round;stroke-width:7;stroke-dasharray:49.99999999999999}.t{opacity:.9;fill:none;stroke:url(#g20);stroke-linecap:round;stroke-width:7;stroke-dasharray:25}.u{opacity:.9;fill:none;stroke:url(#g21);stroke-linecap:round;stroke-width:7;stroke-dasharray:8}.v{fill:none;stroke:url(#g22);stroke-linecap:round;stroke-width:7}</style><path class="a" d="m367 730c-200.7 0-363-162.3-363-363 0-200.7 162.3-363 363-363 200.7 0 363 162.3 363 363 0 200.7-162.3 363-363 363z"/><path class="b" d="m468.3 698.4c-183.2 56-376.6-46.9-432.7-230.1-56-183.2 46.9-376.6 230.1-432.7 183.2-56 376.6 46.9 432.7 230.1 56 183.2-46.9 376.6-230.1 432.7z"/><path class="c" d="m551.5 640.6c-151.3 102-356 62.2-458.1-89.1-102-151.3-62.2-356 89.1-458.1 151.3-102 356-62.2 458.1 89.1 102 151.3 62.2 356-89.1 458.1z"/><path class="d" d="m610.6 564.3c-109.1 134.7-306.2 155.4-440.9 46.3-134.7-109.1-155.4-306.2-46.3-440.9 109.1-134.7 306.2-155.4 440.9-46.3 134.7 109.1 155.4 306.2 46.3 440.9z"/><path class="e" d="m644.3 473.4c-58.9 153.4-230.4 229.7-383.7 170.9-153.4-58.9-229.7-230.4-170.9-383.7 58.9-153.4 230.4-229.7 383.7-170.9 153.4 58.9 229.7 230.4 170.9 383.7z"/><path class="f" d="m646.8 386.6c-10.8 154.7-144.6 271-299.4 260.2-154.7-10.8-271-144.6-260.2-299.4 10.8-154.7 144.6-271 299.4-260.2 154.7 10.8 271 144.6 260.2 299.4z"/><path class="g" d="m624.2 307.6c32.9 142.3-55.6 283.8-197.8 316.6-142.3 32.9-283.8-55.6-316.6-197.8-32.9-142.3 55.6-283.8 197.8-316.6 142.3-32.9 283.8 55.6 316.6 197.8z"/><path class="h" d="m581.3 243.2c68.5 118.6 28 269.7-90.6 338.1-118.5 68.5-269.6 28-338-90.6-68.5-118.5-28-269.6 90.5-338 118.6-68.5 269.7-28 338.1 90.5z"/><path class="i" d="m524.5 198.1c93.5 87.1 98.6 233 11.4 326.4-87.1 93.5-233 98.6-326.4 11.4-93.5-87.1-98.6-233-11.4-326.4 87.1-93.5 233-98.6 326.4-11.4z"/><path class="j" d="m461 174.2c106.6 52 150.8 180.2 98.8 286.8-52 106.6-180.2 150.8-286.8 98.8-106.6-52-150.8-180.2-98.8-286.8 52-106.6 180.2-150.8 286.8-98.8z"/><path class="k" d="m398 171.4c108.1 17.2 181.7 118.4 164.6 226.6-17.2 108.1-118.4 181.7-226.6 164.6-108.1-17.2-181.7-118.4-164.6-226.6 17.2-108.1 118.4-181.7 226.6-164.6z"/><path class="l" d="m338.6 187.7c99.1-15.7 192 51.8 207.7 150.9 15.7 99.1-51.8 192-150.9 207.7-99.1 15.7-192-51.8-207.7-150.9-15.7-99.1 51.8-192 150.9-207.7z"/><path class="m" d="m294.7 218.7c82-40 180.6-6 220.6 76 40 82 6 180.6-76 220.6-82 40-180.6 6-220.6-76-40-82-6-180.6 76-220.6z"/><path class="n" d="m265.7 258.4c60.1-56 153.9-52.7 209.9 7.3 56 60.1 52.7 153.9-7.3 209.9-60.1 56-153.9 52.7-209.9-7.3-56-60.1-52.7-153.9 7.3-209.9z"/><path class="o" d="m252.7 301c36.5-63.2 117.1-84.8 180.3-48.3 63.2 36.5 84.8 117.1 48.3 180.3-36.5 63.2-117.1 84.8-180.3 48.3-63.2-36.5-84.8-117.1-48.3-180.3z"/><path class="p" d="m254.5 341c14.3-62.2 76.2-100.9 138.5-86.5 62.2 14.3 100.9 76.2 86.5 138.5-14.3 62.2-76.2 100.9-138.5 86.5-62.2-14.3-100.9-76.2-86.5-138.5z"/><path class="q" d="m268.2 373.9c-3.8-54.6 37.3-101.8 91.9-105.7 54.6-3.8 101.8 37.3 105.7 91.9 3.8 54.6-37.3 101.8-91.9 105.7-54.6 3.8-101.8-37.3-105.7-91.9z"/><path class="r" d="m290 396.6c-16.4-42.6 4.8-90.3 47.4-106.6 42.6-16.4 90.3 4.8 106.6 47.4 16.4 42.6-4.8 90.3-47.4 106.6-42.6 16.4-90.3-4.8-106.6-47.4z"/><path class="s" d="m315.7 408.5c-23-28.3-18.6-69.8 9.8-92.8 28.3-23 69.8-18.6 92.8 9.8 23 28.3 18.6 69.8-9.8 92.8-28.3 23-69.8 18.6-92.8-9.8z"/><path class="t" d="m339.3 408c-22.7-15.3-28.6-46-13.3-68.7 15.3-22.7 46-28.6 68.7-13.3 22.7 15.3 28.6 46 13.3 68.7-15.3 22.7-46 28.6-68.7 13.3z"/><path class="u" d="m357.4 398.6c-17.5-5.4-27.3-23.8-22-41.2 5.4-17.5 23.8-27.3 41.2-22 17.5 5.4 27.3 23.8 22 41.2-5.4 17.5-23.8 27.3-41.2 22z"/><path class="v" d="m367 383.5c-9.1 0-16.5-7.4-16.5-16.5 0-9.1 7.4-16.5 16.5-16.5 9.1 0 16.5 7.4 16.5 16.5 0 9.1-7.4 16.5-16.5 16.5z"/></svg>