<svg version="1.2" xmlns="http://www.w3.org/2000/svg" viewBox="0 0 571 139" width="571" height="139"><style>.a{fill:rgba(10, 61, 98, 1)}.b{fill:rgba(196, 229, 56,1.0)}</style><path fill-rule="evenodd" class="a" d="m26.1 106h-15.6v-59.8h-10.4v-13.1h10.4v-10.6q0-11.9 5.9-17 6-5.3 16.9-5.3h7.7v13.2h-5.3q-5.2 0-7.4 2.2-2.2 2.1-2.2 7.1v10.4h16.8v13.1h-16.8zm74.3-13.3h8.4q6.3 0 8.9-2.2 2.5-2.3 2.5-8.3v-36.1h-20.5v-13h20.5v-18.6h13.7l1.9 18.6h12.5v13h-12.5v36.1q0 13.3-6.3 18.6-6.3 5.2-17.1 5.2h-12zm79.5 13.2h-15.6v-72.9h13.9l1.3 10.3q3.5-5.6 9.2-8.8 5.9-3.3 13.6-3.3 17.3 0 24.1 13.7 3.9-6.3 10.6-10 6.7-3.7 14.5-3.7 13.7 0 21.5 8.3 7.8 8.2 7.8 24.5v41.9h-15.6v-40.3q0-21.1-16.2-21.1-8.2 0-13.5 6.1-5.2 6.2-5.2 17.7v37.6h-15.5v-40.3q0-21.1-16.4-21.1-8 0-13.3 6.1-5.2 6.2-5.2 17.7zm153.2 1.7q-10.4 0-18.8-4.7-8.3-4.8-13.1-13.3-4.9-8.7-4.9-20.2 0-11.5 4.9-20 5-8.7 13.4-13.4 8.3-4.8 18.6-4.8 10.5 0 18.7 4.8 8.4 4.7 13.2 13.4 5 8.5 5 20 0 11.5-5 20.2-4.8 8.5-13.2 13.3-8.4 4.7-18.8 4.7zm0-13.3q5.6 0 10.3-2.8 4.8-2.8 7.8-8.3 2.9-5.6 2.9-13.8 0-8.2-2.9-13.7-2.8-5.5-7.7-8.3-4.7-2.8-10.3-2.8-5.5 0-10.4 2.8-4.7 2.8-7.6 8.3-3 5.5-3 13.7 0 8.2 3 13.8 2.9 5.5 7.6 8.3 4.7 2.8 10.3 2.8zm63.2-75.2q-4.4 0-7.4-2.6-2.7-2.8-2.7-6.9 0-4.1 2.7-6.8 3-2.8 7.4-2.8 4.4 0 7.2 2.8 2.9 2.7 2.9 6.8 0 4.1-2.9 6.9-2.8 2.6-7.2 2.6zm-15.1 119.1h-8.1v-13.2h5.7q5.2 0 7.4-2.1 2.2-2.2 2.2-7.2v-82.7h15.5v82.9q0 11.9-6 17.2-6 5.1-16.7 5.1zm77.4-30.6q-10.4 0-18.8-4.7-8.2-4.8-13.1-13.3-4.8-8.7-4.8-20.2 0-11.5 4.8-20 5-8.7 13.4-13.4 8.4-4.8 18.7-4.8 10.4 0 18.6 4.8 8.4 4.7 13.3 13.4 5 8.5 5 20 0 11.5-5 20.2-4.9 8.5-13.3 13.3-8.3 4.7-18.8 4.7zm0-13.3q5.6 0 10.3-2.8 4.9-2.8 7.8-8.3 2.9-5.6 2.9-13.8 0-8.2-2.9-13.7-2.8-5.5-7.6-8.3-4.7-2.8-10.3-2.8-5.6 0-10.5 2.8-4.7 2.8-7.6 8.3-2.9 5.5-2.9 13.7 0 8.2 2.9 13.8 2.9 5.5 7.6 8.3 4.7 2.8 10.3 2.8zm83.1 13.3q-13.8 0-22.8-6.7-9-6.8-10.3-18h15.7q1.2 5 5.6 8.7 4.4 3.5 11.6 3.5 7.1 0 10.3-2.9 3.3-2.9 3.3-6.8 0-5.6-4.6-7.5-4.4-2-12.3-3.6-6.2-1.4-12.4-3.6-6-2.2-10.1-6.1-4-4.2-4-11.1 0-9.5 7.3-15.8 7.4-6.5 20.6-6.5 12.2 0 19.7 5.9 7.7 5.9 9 16.6h-15q-0.7-4.7-4.4-7.4-3.5-2.6-9.6-2.6-5.8 0-9.1 2.5-3.2 2.3-3.2 6.2 0 3.8 4.4 6 4.5 2.2 11.9 4 7.3 1.6 13.5 3.8 6.3 2 10.2 6.2 3.8 4.1 3.8 12 0.1 10-7.8 16.6-7.8 6.6-21.3 6.6z"/><path class="b" d="m44.1 108.3q0 0 0-0.5c0-0.6 3.4-8.5 7.3-18.6 4.5-10.1 7.8-18.5 7.8-18.5 0 0-1.1-0.5-7.2-0.5-4.5 0-7.3 0-7.3 0-0.6 0-0.6-0.6-0.6-1.2 0 0 4.5-9.5 10.1-21.3 7.3-14.6 10.7-20.7 10.7-20.7 0.5-0.6 0.5-0.6 12.3-0.6h11.2l0.6 0.6c0 0 0.5 1.1 0 1.7 0 0-3.9 5.6-7.9 12.3-4.5 6.7-7.8 12.9-7.8 12.9 0 0 1.1 0 8.4 0h8.4v0.6q1.1 0.5 0 1.6c-1.1 1.7-43.8 52.2-44.3 52.8q-0.6 0.5-1.7-0.6z"/><path class="b" d="m79.6 19.3q-4.4 0-7.4-2.7-2.8-2.8-2.8-6.9 0-4.1 2.8-6.7 3-2.8 7.4-2.8 4.4 0 7.2 2.8 2.9 2.6 2.9 6.7 0 4.1-2.9 6.9-2.8 2.7-7.2 2.7z"/></svg>