<svg version="1.2" xmlns="http://www.w3.org/2000/svg" viewBox="0 0 120 120" width="120" height="120">
	<title>mascot-svg</title>
	<style>
		.s0 { fill: #c4e538 } 
	</style>
	<g id="Folder 1" style="opacity: .1">
		<path id="Layer" class="s0" d="m36.1 113.3q0 0 0-0.5c0-0.6 3.4-8.5 7.3-18.6 4.5-10.1 7.8-18.5 7.8-18.5 0 0-1.1-0.5-7.2-0.5-4.5 0-7.3 0-7.3 0-0.6 0-0.6-0.6-0.6-1.2 0 0 4.5-9.5 10.1-21.3 7.3-14.6 10.7-20.7 10.7-20.7 0.5-0.6 0.5-0.6 12.3-0.6h11.2l0.6 0.6c0 0 0.5 1.1 0 1.7 0 0-3.9 5.6-7.9 12.3-4.5 6.7-7.8 12.9-7.8 12.9 0 0 1.1 0 8.4 0h8.4v0.6q1.1 0.5 0 1.6c-1.1 1.7-43.8 52.2-44.3 52.8q-0.6 0.5-1.7-0.6z"/>
		<path id="Layer" class="s0" d="m71.6 24.3q-4.4 0-7.4-2.7-2.8-2.8-2.8-6.9 0-4.1 2.8-6.7 3-2.8 7.4-2.8 4.4 0 7.2 2.8 2.9 2.6 2.9 6.7 0 4.1-2.9 6.9-2.8 2.7-7.2 2.7z"/>
	</g>
</svg>