<svg xmlns="http://www.w3.org/2000/svg" version="1.1" xmlns:xlink="http://www.w3.org/1999/xlink" xmlns:svgjs="http://svgjs.dev/svgjs" viewBox="0 0 800 800" opacity="0.62"><g fill="none" stroke-width="9.25" stroke="hsl(50, 98%, 50%)" stroke-linecap="round" stroke-dasharray="0 12" transform="matrix(0.8,0,0,0.8,80.00000476837158,80.00000419616697)"><line x1="759" y1="400" x2="41" y2="400" transform="rotate(0, 400, 400)" opacity="0.27"></line><line x1="578" y1="400" x2="222" y2="400" transform="rotate(8, 400, 400)" opacity="0.61"></line><line x1="692" y1="400" x2="108" y2="400" transform="rotate(16, 400, 400)" opacity="0.97"></line><line x1="579.5" y1="400" x2="220.5" y2="400" transform="rotate(24, 400, 400)" opacity="0.79"></line><line x1="505.5" y1="400" x2="294.5" y2="400" transform="rotate(32, 400, 400)" opacity="0.13"></line><line x1="589" y1="400" x2="211" y2="400" transform="rotate(40, 400, 400)" opacity="0.26"></line><line x1="627" y1="400" x2="173" y2="400" transform="rotate(48, 400, 400)" opacity="0.18"></line><line x1="615.5" y1="400" x2="184.5" y2="400" transform="rotate(56, 400, 400)" opacity="0.14"></line><line x1="726" y1="400" x2="74" y2="400" transform="rotate(64, 400, 400)" opacity="0.82"></line><line x1="677.5" y1="400" x2="122.5" y2="400" transform="rotate(72, 400, 400)" opacity="0.68"></line><line x1="527.5" y1="400" x2="272.5" y2="400" transform="rotate(80, 400, 400)" opacity="0.19"></line><line x1="678" y1="400" x2="122" y2="400" transform="rotate(88, 400, 400)" opacity="0.54"></line><line x1="771.5" y1="400" x2="28.5" y2="400" transform="rotate(96, 400, 400)" opacity="0.91"></line><line x1="636.5" y1="400" x2="163.5" y2="400" transform="rotate(104, 400, 400)" opacity="0.67"></line><line x1="620.5" y1="400" x2="179.5" y2="400" transform="rotate(112, 400, 400)" opacity="0.07"></line><line x1="783.5" y1="400" x2="16.5" y2="400" transform="rotate(120, 400, 400)" opacity="0.25"></line><line x1="530.5" y1="400" x2="269.5" y2="400" transform="rotate(128, 400, 400)" opacity="0.20"></line><line x1="589.5" y1="400" x2="210.5" y2="400" transform="rotate(136, 400, 400)" opacity="0.15"></line><line x1="620" y1="400" x2="180" y2="400" transform="rotate(144, 400, 400)" opacity="0.70"></line><line x1="615" y1="400" x2="185" y2="400" transform="rotate(152, 400, 400)" opacity="0.88"></line><line x1="724" y1="400" x2="76" y2="400" transform="rotate(160, 400, 400)" opacity="0.59"></line><line x1="678.5" y1="400" x2="121.5" y2="400" transform="rotate(168, 400, 400)" opacity="0.75"></line><line x1="574" y1="400" x2="226" y2="400" transform="rotate(176, 400, 400)" opacity="0.62"></line><line x1="648.5" y1="400" x2="151.5" y2="400" transform="rotate(184, 400, 400)" opacity="0.69"></line><line x1="765.5" y1="400" x2="34.5" y2="400" transform="rotate(192, 400, 400)" opacity="0.75"></line><line x1="513.5" y1="400" x2="286.5" y2="400" transform="rotate(200, 400, 400)" opacity="0.17"></line><line x1="590" y1="400" x2="210" y2="400" transform="rotate(208, 400, 400)" opacity="0.22"></line><line x1="749.5" y1="400" x2="50.5" y2="400" transform="rotate(216, 400, 400)" opacity="0.84"></line><line x1="661.5" y1="400" x2="138.5" y2="400" transform="rotate(224, 400, 400)" opacity="0.26"></line><line x1="560.5" y1="400" x2="239.5" y2="400" transform="rotate(232, 400, 400)" opacity="0.66"></line><line x1="666.5" y1="400" x2="133.5" y2="400" transform="rotate(240, 400, 400)" opacity="0.14"></line><line x1="513.5" y1="400" x2="286.5" y2="400" transform="rotate(248, 400, 400)" opacity="0.21"></line><line x1="676" y1="400" x2="124" y2="400" transform="rotate(256, 400, 400)" opacity="0.31"></line><line x1="753.5" y1="400" x2="46.5" y2="400" transform="rotate(264, 400, 400)" opacity="0.48"></line><line x1="688" y1="400" x2="112" y2="400" transform="rotate(272, 400, 400)" opacity="0.24"></line><line x1="496" y1="400" x2="304" y2="400" transform="rotate(280, 400, 400)" opacity="0.63"></line><line x1="775.5" y1="400" x2="24.5" y2="400" transform="rotate(288, 400, 400)" opacity="0.43"></line><line x1="788.5" y1="400" x2="11.5" y2="400" transform="rotate(296, 400, 400)" opacity="0.54"></line><line x1="500" y1="400" x2="300" y2="400" transform="rotate(304, 400, 400)" opacity="0.17"></line><line x1="632.5" y1="400" x2="167.5" y2="400" transform="rotate(312, 400, 400)" opacity="0.99"></line><line x1="779.5" y1="400" x2="20.5" y2="400" transform="rotate(320, 400, 400)" opacity="0.77"></line><line x1="585" y1="400" x2="215" y2="400" transform="rotate(328, 400, 400)" opacity="0.98"></line><line x1="780" y1="400" x2="20" y2="400" transform="rotate(336, 400, 400)" opacity="0.92"></line><line x1="496.5" y1="400" x2="303.5" y2="400" transform="rotate(344, 400, 400)" opacity="0.56"></line><line x1="796" y1="400" x2="4" y2="400" transform="rotate(352, 400, 400)" opacity="0.10"></line><line x1="708.5" y1="400" x2="91.5" y2="400" transform="rotate(360, 400, 400)" opacity="0.76"></line></g></svg>