<!-- Generated by IcoMoon.io -->
<svg version="1.1" xmlns="http://www.w3.org/2000/svg" width="32" height="32" viewBox="0 0 32 32">
<title>account</title>
<path d="M8.031 23.056q1.7-1.262 3.704-1.992t4.265-0.731 4.265 0.731 3.704 1.992q1.244-1.367 1.971-3.164t0.727-3.892q0-4.433-3.117-7.55t-7.55-3.117-7.55 3.117-3.117 7.55q0 2.095 0.727 3.892t1.971 3.164zM16 17q-1.826 0-3.080-1.253t-1.254-3.079 1.253-3.080 3.079-1.254 3.080 1.253 1.254 3.079-1.253 3.080-3.079 1.254zM16 28.667q-2.638 0-4.95-0.992t-4.022-2.703-2.703-4.022-0.992-4.95 0.992-4.95 2.703-4.022 4.022-2.703 4.95-0.992 4.95 0.992 4.022 2.703 2.703 4.022 0.992 4.95-0.992 4.95-2.703 4.022-4.022 2.703-4.95 0.992zM16 26.667q1.805 0 3.481-0.581t2.976-1.624q-1.3-1.005-2.937-1.567t-3.519-0.562-3.526 0.555-2.931 1.573q1.3 1.044 2.976 1.624t3.481 0.581zM16 15q0.995 0 1.664-0.669t0.669-1.664-0.669-1.664-1.664-0.669-1.664 0.669-0.669 1.664 0.669 1.664 1.664 0.669z"></path>
</svg>
