<!-- Generated by IcoMoon.io -->
<svg version="1.1" xmlns="http://www.w3.org/2000/svg" width="32" height="32" viewBox="0 0 32 32">
<title>bike</title>
<path d="M20.41 7.256q-0.972 0-1.653-0.681t-0.681-1.653 0.681-1.653 1.653-0.681 1.653 0.681 0.681 1.653-0.681 1.653-1.653 0.681zM14.015 13.923l2.315 2.428q0.328 0.328 0.499 0.756t0.171 0.897v5.995q0 0.425-0.288 0.712t-0.713 0.288-0.712-0.288-0.287-0.712v-5.628l-4.446-3.618q-0.403-0.336-0.556-0.715t-0.154-0.905 0.171-0.891 0.54-0.735l3.81-3.81q0.369-0.369 0.808-0.54t0.962-0.17 0.962 0.17 0.808 0.54l2.533 2.533q0.726 0.726 1.656 1.241t2.036 0.728q0.438 0.087 0.722 0.385t0.283 0.729-0.31 0.709-0.736 0.223q-1.582-0.233-2.872-0.908t-2.318-1.703l-1.297-1.297-3.585 3.585zM6.923 16.41q2.659 0 4.458 1.799t1.799 4.458-1.799 4.458-4.458 1.799-4.458-1.799-1.799-4.458 1.799-4.458 4.458-1.799zM6.923 27.333q1.926 0 3.296-1.37t1.37-3.296-1.37-3.296-3.296-1.37-3.296 1.37-1.37 3.296 1.37 3.296 3.296 1.37zM25.077 16.41q2.659 0 4.458 1.799t1.799 4.458-1.799 4.458-4.458 1.799-4.458-1.799-1.799-4.458 1.799-4.458 4.458-1.799zM25.077 27.333q1.926 0 3.296-1.37t1.37-3.296-1.37-3.296-3.296-1.37-3.296 1.37-1.37 3.296 1.37 3.296 3.296 1.37z"></path>
</svg>
