<!-- Generated by IcoMoon.io -->
<svg version="1.1" xmlns="http://www.w3.org/2000/svg" width="32" height="32" viewBox="0 0 32 32">
<title>calendar</title>
<path d="M7.077 28.667q-1.010 0-1.71-0.7t-0.7-1.71v-17.846q0-1.010 0.7-1.71t1.71-0.7h1.846v-1.795q0-0.438 0.294-0.732t0.732-0.294 0.732 0.294 0.294 0.732v1.795h10.103v-1.821q0-0.426 0.287-0.713t0.713-0.287 0.713 0.287 0.287 0.713v1.821h1.846q1.010 0 1.71 0.7t0.7 1.71v17.846q0 1.010-0.7 1.71t-1.71 0.7h-17.846zM7.077 26.667h17.846q0.154 0 0.282-0.128t0.128-0.282v-12.513h-18.667v12.513q0 0.154 0.128 0.282t0.282 0.128zM6.667 11.744h18.667v-3.333q0-0.154-0.128-0.282t-0.282-0.128h-17.846q-0.154 0-0.282 0.128t-0.128 0.282v3.333zM6.667 11.744v0zM16 18.769q-0.49 0-0.835-0.345t-0.345-0.835 0.345-0.835 0.835-0.345 0.835 0.345 0.345 0.835-0.345 0.835-0.835 0.345zM10.667 18.769q-0.49 0-0.835-0.345t-0.345-0.835 0.345-0.835 0.835-0.345 0.835 0.345 0.345 0.835-0.345 0.835-0.835 0.345zM21.333 18.769q-0.49 0-0.835-0.345t-0.345-0.835 0.345-0.835 0.835-0.345 0.835 0.345 0.345 0.835-0.345 0.835-0.835 0.345zM16 24q-0.49 0-0.835-0.345t-0.345-0.835 0.345-0.835 0.835-0.345 0.835 0.345 0.345 0.835-0.345 0.835-0.835 0.345zM10.667 24q-0.49 0-0.835-0.345t-0.345-0.835 0.345-0.835 0.835-0.345 0.835 0.345 0.345 0.835-0.345 0.835-0.835 0.345zM21.333 24q-0.49 0-0.835-0.345t-0.345-0.835 0.345-0.835 0.835-0.345 0.835 0.345 0.345 0.835-0.345 0.835-0.835 0.345z"></path>
</svg>
