<!-- Generated by IcoMoon.io -->
<svg version="1.1" xmlns="http://www.w3.org/2000/svg" width="32" height="32" viewBox="0 0 32 32">
<title>camera</title>
<path d="M4.41 27.333q-1.010 0-1.71-0.7t-0.7-1.71v-15.179q0-1.010 0.7-1.71t1.71-0.7h4.072l2.467-2.667h7.462v2h-6.59l-2.446 2.667h-4.964q-0.179 0-0.295 0.115t-0.115 0.295v15.179q0 0.18 0.115 0.295t0.295 0.115h20.513q0.18 0 0.295-0.115t0.115-0.295v-11.333h2v11.333q0 1.010-0.7 1.71t-1.71 0.7h-20.513zM25.333 9.333v-2.667h-2.667v-2h2.667v-2.667h2v2.667h2.667v2h-2.667v2.667h-2zM14.667 22.82q2.295 0 3.891-1.596t1.596-3.891-1.596-3.891-3.891-1.596-3.891 1.596-1.596 3.891 1.596 3.891 3.891 1.596zM14.667 20.821q-1.477 0-2.482-1.005t-1.005-2.482 1.005-2.482 2.482-1.005 2.482 1.005 1.005 2.482-1.005 2.482-2.482 1.005z"></path>
</svg>
