<!-- Generated by IcoMoon.io -->
<svg version="1.1" xmlns="http://www.w3.org/2000/svg" width="32" height="32" viewBox="0 0 32 32">
<title>category</title>
<path d="M10.708 12.313l4.261-6.985q0.187-0.308 0.458-0.438t0.572-0.131 0.572 0.131 0.458 0.438l4.261 6.985q0.187 0.301 0.187 0.633t-0.154 0.606-0.423 0.438-0.628 0.164h-8.549q-0.36 0-0.631-0.166t-0.421-0.437q-0.154-0.27-0.154-0.6t0.187-0.638zM23.333 28.82q-2.295 0-3.891-1.596t-1.596-3.891 1.596-3.891 3.891-1.596 3.891 1.596 1.596 3.891-1.596 3.891-3.891 1.596zM4.513 26.948v-7.233q0-0.512 0.347-0.857t0.859-0.345h7.233q0.512 0 0.857 0.347t0.345 0.859v7.233q0 0.512-0.347 0.857t-0.859 0.345h-7.233q-0.512 0-0.857-0.347t-0.345-0.859zM23.333 26.821q1.464 0 2.476-1.011t1.012-2.476-1.011-2.476-2.476-1.012-2.476 1.011-1.012 2.476 1.011 2.476 2.476 1.012zM6.513 26.154h5.641v-5.641h-5.641v5.641zM13.118 12.154h5.764l-2.882-4.636-2.882 4.636z"></path>
</svg>
