<!-- Generated by IcoMoon.io -->
<svg version="1.1" xmlns="http://www.w3.org/2000/svg" width="32" height="32" viewBox="0 0 32 32">
<title>celebration</title>
<path d="M7.028 24.933l9.4-3.333-6.067-6.067-3.333 9.4zM29.79 9.7q-0.236 0.249-0.553 0.249t-0.553-0.236l-0.087-0.087q-0.544-0.544-1.321-0.544t-1.321 0.544l-6.754 6.754q-0.236 0.236-0.553 0.242t-0.565-0.242-0.249-0.559 0.249-0.559l6.754-6.754q1.003-1.003 2.426-1.003t2.426 1.003l0.1 0.1q0.236 0.236 0.236 0.546t-0.236 0.546zM13.172 5.867q0.249-0.249 0.559-0.249t0.559 0.249l0.282 0.282q1.067 1.067 1.067 2.559t-1.067 2.559l-0.241 0.241q-0.236 0.236-0.553 0.242t-0.565-0.242-0.249-0.559 0.249-0.559l0.241-0.241q0.595-0.595 0.595-1.441t-0.595-1.441l-0.282-0.282q-0.236-0.236-0.242-0.553t0.242-0.565zM18.315 3.559q0.249-0.249 0.559-0.249t0.559 0.249l1.421 1.421q1.015 1.015 1.015 2.438t-1.015 2.438l-4.087 4.087q-0.236 0.236-0.553 0.242t-0.565-0.242-0.249-0.559 0.249-0.559l4.087-4.087q0.544-0.544 0.544-1.321t-0.544-1.321l-1.421-1.421q-0.236-0.236-0.242-0.553t0.242-0.565zM27.802 18.815q-0.249 0.249-0.559 0.249t-0.559-0.249l-1.036-1.036q-0.608-0.608-1.487-0.608t-1.487 0.608l-1.036 1.036q-0.236 0.236-0.553 0.242t-0.565-0.242-0.249-0.559 0.249-0.559l1.036-1.036q1.079-1.079 2.605-1.079t2.605 1.079l1.036 1.036q0.236 0.236 0.242 0.553t-0.242 0.565zM4.574 25.82l4.367-12.141q0.154-0.395 0.465-0.603t0.673-0.208q0.241 0 0.449 0.081t0.395 0.268l7.82 7.82q0.187 0.187 0.268 0.395t0.081 0.449q0 0.362-0.208 0.673t-0.603 0.465l-12.141 4.367q-0.362 0.141-0.696 0.044t-0.576-0.338-0.338-0.576 0.044-0.696z"></path>
</svg>
