<!-- Generated by IcoMoon.io -->
<svg version="1.1" xmlns="http://www.w3.org/2000/svg" width="32" height="32" viewBox="0 0 32 32">
<title>change_circle</title>
<path d="M16.079 25.051l3.505-3.485-3.505-3.485-1.118 1.118 1.638 1.638q-1.241 0.021-2.285-0.332t-1.756-1.065q-0.705-0.705-1.068-1.61t-0.363-1.81q0-0.567 0.137-1.133t0.391-1.087l-1.185-1.133q-0.477 0.769-0.705 1.614t-0.228 1.719q0 1.227 0.481 2.423t1.415 2.136 2.269 1.405 2.742 0.485l-1.485 1.485 1.118 1.118zM21.541 19.333q0.477-0.769 0.705-1.614t0.228-1.719q0-1.226-0.471-2.435t-1.412-2.145q-0.928-0.941-2.276-1.395t-2.75-0.454l1.485-1.505-1.118-1.118-3.505 3.485 3.505 3.485 1.118-1.118-1.659-1.659q1.221 0 2.295 0.363t1.77 1.060 1.062 1.603 0.365 1.812q0 0.567-0.137 1.133t-0.391 1.087l1.185 1.133zM16.002 28.667q-2.628 0-4.94-0.997t-4.023-2.707-2.708-4.021-0.998-4.939 0.997-4.94 2.707-4.023 4.021-2.708 4.939-0.998 4.94 0.997 4.023 2.707 2.708 4.021 0.998 4.939-0.997 4.94-2.707 4.023-4.021 2.708-4.939 0.998zM16 26.667q4.467 0 7.567-3.1t3.1-7.567-3.1-7.567-7.567-3.1-7.567 3.1-3.1 7.567 3.1 7.567 7.567 3.1z"></path>
</svg>
