<!-- Generated by IcoMoon.io -->
<svg version="1.1" xmlns="http://www.w3.org/2000/svg" width="32" height="32" viewBox="0 0 32 32">
<title>close</title>
<path d="M16 17.405l-6.764 6.764q-0.277 0.277-0.696 0.283t-0.709-0.283-0.29-0.703 0.29-0.703l6.764-6.764-6.764-6.764q-0.277-0.277-0.283-0.696t0.283-0.709 0.703-0.29 0.703 0.29l6.764 6.764 6.764-6.764q0.277-0.277 0.696-0.283t0.709 0.283 0.29 0.703-0.29 0.703l-6.764 6.764 6.764 6.764q0.277 0.277 0.283 0.696t-0.283 0.709-0.703 0.29-0.703-0.29l-6.764-6.764z"></path>
</svg>
