<!-- Generated by IcoMoon.io -->
<svg version="1.1" xmlns="http://www.w3.org/2000/svg" width="32" height="32" viewBox="0 0 32 32">
<title>connect</title>
<path d="M9.2 28.4q-1.333 0-2.4-0.933-0.933-1.067-0.933-2.4 0-1.467 0.933-2.4 1.067-1.067 2.4-1.067 0.4 0 0.8 0.133 0.267 0.133 0.667 0.267l1.6-2q-0.8-0.933-1.2-2-0.267-1.067-0.133-2.267l-2.267-0.667q-0.4 0.667-1.2 1.067-0.667 0.4-1.6 0.4-1.467 0-2.4-0.933-1.067-1.067-1.067-2.4 0-1.467 1.067-2.4 0.933-1.067 2.4-1.067 1.333 0 2.4 1.067 0.933 0.933 0.933 2.4v0.267l2.267 0.667q0.667-0.933 1.6-1.6 0.933-0.8 2.133-0.933v-2.533q-1.2-0.267-1.867-1.2-0.667-0.8-0.667-2 0-1.467 0.933-2.4 0.933-1.067 2.4-1.067t2.4 1.067q0.933 0.933 0.933 2.4 0 1.2-0.667 2-0.8 0.933-1.867 1.2v2.533q1.2 0.133 2.133 0.933 0.933 0.667 1.6 1.6l2.267-0.667v-0.267q0-1.467 0.933-2.4 1.067-1.067 2.4-1.067 1.467 0 2.4 1.067 1.067 0.933 1.067 2.4 0 1.333-1.067 2.4-0.933 0.933-2.4 0.933-0.933 0-1.6-0.4-0.8-0.4-1.2-1.067l-2.267 0.667q0.133 1.2-0.133 2.267-0.4 1.067-1.2 2l1.6 1.867q0.4-0.133 0.667-0.133 0.4-0.133 0.8-0.133 1.333 0 2.4 1.067 0.933 0.933 0.933 2.4 0 1.333-0.933 2.4-1.067 0.933-2.4 0.933-1.467 0-2.4-0.933-1.067-1.067-1.067-2.4 0-0.667 0.267-1.067 0.133-0.533 0.4-1.067l-1.6-2q-1.067 0.667-2.4 0.667t-2.533-0.667l-1.467 2q0.267 0.533 0.4 1.067 0.267 0.4 0.267 1.067 0 1.333-1.067 2.4-0.933 0.933-2.4 0.933zM5.867 14.267q0.4 0 0.8-0.267 0.267-0.4 0.267-0.8 0-0.533-0.267-0.8-0.4-0.4-0.8-0.4-0.533 0-0.8 0.4-0.4 0.267-0.4 0.8 0 0.4 0.4 0.8 0.267 0.267 0.8 0.267zM9.2 26.133q0.533 0 0.8-0.267 0.4-0.4 0.4-0.8 0-0.533-0.4-0.8-0.267-0.4-0.8-0.4-0.4 0-0.8 0.4-0.267 0.267-0.267 0.8 0 0.4 0.267 0.8 0.4 0.267 0.8 0.267zM16 6.933q0.533 0 0.8-0.267 0.267-0.4 0.267-0.8 0-0.533-0.267-0.8-0.267-0.4-0.8-0.4t-0.8 0.4q-0.267 0.267-0.267 0.8 0 0.4 0.267 0.8 0.267 0.267 0.8 0.267zM16 19.333q1.2 0 2-0.8t0.8-2-0.8-2-2-0.8-2 0.8-0.8 2 0.8 2 2 0.8zM22.8 26.133q0.4 0 0.8-0.267 0.267-0.4 0.267-0.8 0-0.533-0.267-0.8-0.4-0.4-0.8-0.4-0.533 0-0.8 0.4-0.4 0.267-0.4 0.8 0 0.4 0.4 0.8 0.267 0.267 0.8 0.267zM26.133 14.267q0.533 0 0.8-0.267 0.4-0.4 0.4-0.8 0-0.533-0.4-0.8-0.267-0.4-0.8-0.4-0.4 0-0.8 0.4-0.267 0.267-0.267 0.8 0 0.4 0.267 0.8 0.4 0.267 0.8 0.267z"></path>
</svg>
