<!-- Generated by IcoMoon.io -->
<svg version="1.1" xmlns="http://www.w3.org/2000/svg" width="32" height="32" viewBox="0 0 32 32">
<title>connect</title>
<path d="M5.333 28q-1.667 0-2.833-1.167t-1.167-2.833 1.167-2.833 2.833-1.167q0.3 0 0.583 0.050t0.55 0.117l5.4-7.433q-0.567-0.7-0.883-1.567t-0.317-1.833q0-2.2 1.567-3.767t3.767-1.567 3.767 1.567 1.567 3.767q0 0.967-0.333 1.833t-0.9 1.567l5.433 7.433q0.267-0.067 0.55-0.117t0.583-0.050q1.667 0 2.833 1.167t1.167 2.833-1.167 2.833-2.833 1.167-2.833-1.167-1.167-2.833q0-0.633 0.183-1.217t0.517-1.050l-5.4-7.433q-0.167 0.067-0.317 0.1t-0.317 0.1v5.733q1.167 0.4 1.917 1.433t0.75 2.333q0 1.667-1.167 2.833t-2.833 1.167-2.833-1.167-1.167-2.833q0-1.3 0.75-2.317t1.917-1.45v-5.733q-0.167-0.067-0.317-0.1t-0.317-0.1l-5.4 7.433q0.333 0.467 0.517 1.050t0.183 1.217q0 1.667-1.167 2.833t-2.833 1.167zM5.333 25.333q0.567 0 0.95-0.383t0.383-0.95-0.383-0.95-0.95-0.383-0.95 0.383-0.383 0.95 0.383 0.95 0.95 0.383zM16 25.333q0.567 0 0.95-0.383t0.383-0.95-0.383-0.95-0.95-0.383-0.95 0.383-0.383 0.95 0.383 0.95 0.95 0.383zM26.667 25.333q0.567 0 0.95-0.383t0.383-0.95-0.383-0.95-0.95-0.383-0.95 0.383-0.383 0.95 0.383 0.95 0.95 0.383zM16 12q1.1 0 1.883-0.783t0.783-1.883-0.783-1.883-1.883-0.783-1.883 0.783-0.783 1.883 0.783 1.883 1.883 0.783z"></path>
</svg>
