<!-- Generated by IcoMoon.io -->
<svg version="1.1" xmlns="http://www.w3.org/2000/svg" width="32" height="32" viewBox="0 0 32 32">
<title>connect2</title>
<path d="M8 30.667q-1.667 0-2.833-1.167t-1.167-2.833 1.167-2.833 2.833-1.167q0.467 0 0.867 0.1t0.767 0.267l1.9-2.367q-0.933-1.033-1.3-2.333t-0.167-2.6l-2.7-0.9q-0.567 0.833-1.433 1.333t-1.933 0.5q-1.667 0-2.833-1.167t-1.167-2.833 1.167-2.833 2.833-1.167 2.833 1.167 1.167 2.833v0.267l2.7 0.933q0.667-1.2 1.783-2.033t2.517-1.067v-2.9q-1.3-0.367-2.15-1.417t-0.85-2.45q0-1.667 1.167-2.833t2.833-1.167 2.833 1.167 1.167 2.833q0 1.4-0.867 2.45t-2.133 1.417v2.9q1.4 0.233 2.517 1.067t1.783 2.033l2.7-0.933v-0.267q0-1.667 1.167-2.833t2.833-1.167 2.833 1.167 1.167 2.833-1.167 2.833-2.833 1.167q-1.067 0-1.95-0.5t-1.417-1.333l-2.7 0.9q0.2 1.3-0.167 2.583t-1.3 2.35l1.9 2.333q0.367-0.167 0.767-0.25t0.867-0.083q1.667 0 2.833 1.167t1.167 2.833-1.167 2.833-2.833 1.167-2.833-1.167-1.167-2.833q0-0.667 0.217-1.283t0.583-1.117l-1.9-2.367q-1.367 0.767-2.917 0.767t-2.917-0.767l-1.867 2.367q0.367 0.5 0.583 1.117t0.217 1.283q0 1.667-1.167 2.833t-2.833 1.167zM4 14q0.567 0 0.95-0.383t0.383-0.95-0.383-0.95-0.95-0.383-0.95 0.383-0.383 0.95 0.383 0.95 0.95 0.383zM8 28q0.567 0 0.95-0.383t0.383-0.95-0.383-0.95-0.95-0.383-0.95 0.383-0.383 0.95 0.383 0.95 0.95 0.383zM16 5.333q0.567 0 0.95-0.383t0.383-0.95-0.383-0.95-0.95-0.383-0.95 0.383-0.383 0.95 0.383 0.95 0.95 0.383zM16 20q1.4 0 2.367-0.967t0.967-2.367-0.967-2.367-2.367-0.967-2.367 0.967-0.967 2.367 0.967 2.367 2.367 0.967zM24 28q0.567 0 0.95-0.383t0.383-0.95-0.383-0.95-0.95-0.383-0.95 0.383-0.383 0.95 0.383 0.95 0.95 0.383zM28 14q0.567 0 0.95-0.383t0.383-0.95-0.383-0.95-0.95-0.383-0.95 0.383-0.383 0.95 0.383 0.95 0.95 0.383z"></path>
</svg>
