<!-- Generated by IcoMoon.io -->
<svg version="1.1" xmlns="http://www.w3.org/2000/svg" width="32" height="32" viewBox="0 0 32 32">
<title>exit</title>
<path d="M7.077 27.333q-1.010 0-1.71-0.7t-0.7-1.71v-4.744h2v4.744q0 0.154 0.128 0.282t0.282 0.128h17.846q0.154 0 0.282-0.128t0.128-0.282v-17.846q0-0.154-0.128-0.282t-0.282-0.128h-17.846q-0.154 0-0.282 0.128t-0.128 0.282v4.744h-2v-4.744q0-1.010 0.7-1.71t1.71-0.7h17.846q1.010 0 1.71 0.7t0.7 1.71v17.846q0 1.010-0.7 1.71t-1.71 0.7h-17.846zM14.231 21.949l-1.405-1.446 3.503-3.503h-11.662v-2h11.662l-3.503-3.503 1.405-1.446 5.949 5.949-5.949 5.949z"></path>
</svg>
