<!-- Generated by IcoMoon.io -->
<svg version="1.1" xmlns="http://www.w3.org/2000/svg" width="32" height="32" viewBox="0 0 32 32">
<title>eye-off</title>
<path d="M21.031 17.297l-1.497-1.497q0.341-1.78-0.936-3.036t-3.064-0.964l-1.497-1.497q0.464-0.215 0.955-0.31t1.009-0.095q2.269 0 3.853 1.583t1.583 3.853q0 0.518-0.088 1.009t-0.317 0.955zM25.272 21.446l-1.472-1.379q1.267-0.967 2.267-2.15t1.667-2.583q-1.667-3.367-4.817-5.35t-6.917-1.983q-0.967 0-1.883 0.133t-1.85 0.4l-1.554-1.554q1.272-0.503 2.594-0.741t2.694-0.238q4.297 0 7.895 2.233t5.533 6.044q0.133 0.254 0.194 0.512t0.060 0.545-0.050 0.545-0.183 0.512q-0.708 1.505-1.777 2.779t-2.4 2.277zM16 24.667q-4.21 0-7.718-2.25t-5.577-5.927q-0.167-0.254-0.244-0.551t-0.077-0.605 0.067-0.595 0.233-0.562q0.744-1.359 1.685-2.588t2.164-2.204l-3.010-3.031q-0.277-0.297-0.273-0.706t0.294-0.699 0.703-0.29 0.703 0.29l22.103 22.103q0.277 0.277 0.294 0.686t-0.294 0.719q-0.29 0.29-0.703 0.29t-0.703-0.29l-4.692-4.651q-1.18 0.456-2.424 0.659t-2.53 0.203zM7.939 10.79q-1.172 0.905-2.106 2.047t-1.565 2.496q1.667 3.367 4.817 5.35t6.917 1.983q0.859 0 1.691-0.115t1.653-0.356l-1.687-1.728q-0.405 0.177-0.809 0.24t-0.847 0.063q-2.269 0-3.853-1.583t-1.583-3.853q0-0.444 0.069-0.847t0.233-0.809l-2.928-2.887z"></path>
</svg>
