<!-- Generated by IcoMoon.io -->
<svg version="1.1" xmlns="http://www.w3.org/2000/svg" width="32" height="32" viewBox="0 0 32 32">
<title>eye</title>
<path d="M16.003 20.769q2.266 0 3.849-1.586t1.583-3.853-1.586-3.85-3.853-1.583-3.85 1.586-1.583 3.853 1.586 3.849 3.853 1.583zM16 18.933q-1.5 0-2.55-1.050t-1.050-2.55 1.050-2.55 2.55-1.050 2.55 1.050 1.050 2.55-1.050 2.55-2.55 1.050zM16 24.667q-4.21 0-7.701-2.246t-5.573-5.91q-0.167-0.287-0.244-0.579t-0.077-0.599 0.077-0.598 0.244-0.578q2.082-3.664 5.573-5.91t7.701-2.246 7.701 2.246 5.573 5.91q0.167 0.287 0.244 0.579t0.077 0.599-0.077 0.598-0.244 0.578q-2.082 3.664-5.573 5.91t-7.701 2.246zM16 22.667q3.767 0 6.917-1.983t4.817-5.35q-1.667-3.367-4.817-5.35t-6.917-1.983-6.917 1.983-4.817 5.35q1.667 3.367 4.817 5.35t6.917 1.983z"></path>
</svg>
