<!-- Generated by IcoMoon.io -->
<svg version="1.1" xmlns="http://www.w3.org/2000/svg" width="32" height="32" viewBox="0 0 32 32">
<title>foot</title>
<path d="M10.5 23.333q-2.182 0-3.368-1.656t-1.132-3.921v-0.115l-0.703-1.079q-0.521-0.81-1.242-2.759t-0.722-4.469q0-3.151 1.514-5.242t3.819-2.091q2.436 0 3.885 2.247t1.449 5.086q0 1.844-0.54 3.522t-0.991 2.742l0.433 0.715q0.331 0.556 0.714 1.464t0.383 1.79q0 1.618-0.991 2.692t-2.509 1.074zM7.244 15.851l3.269-0.72q0.459-1.067 0.973-2.632t0.514-3.165q0-2.077-0.936-3.705t-2.397-1.628-2.397 1.628-0.936 3.705q0 2.010 0.603 3.755t1.308 2.763zM10.5 21.333q0.646 0 1.073-0.48t0.427-1.287q0-0.567-0.286-1.231t-0.681-1.285l-3.033 0.692q0 1.538 0.615 2.564t1.885 1.026zM21.5 30q-1.518 0-2.509-1.074t-0.991-2.692q0-0.882 0.383-1.79t0.714-1.464l0.433-0.715q-0.438-1.051-0.985-2.736t-0.546-3.528q0-2.838 1.449-5.086t3.885-2.247q2.305 0 3.819 2.091t1.514 5.242q0 2.52-0.715 4.446t-1.249 2.762l-0.703 1.1v0.128q0.033 2.226-1.149 3.895t-3.351 1.669zM24.705 22.595q0.846-1.326 1.404-2.913t0.558-3.682q0-2.077-0.936-3.705t-2.397-1.628-2.397 1.628-0.936 3.705q0 1.6 0.521 3.149t0.967 2.649l3.218 0.797zM21.5 28q1.244 0 1.872-1.013t0.628-2.487l-3.020-0.795q-0.305 0.544-0.642 1.214t-0.337 1.314q0 0.68 0.43 1.223t1.070 0.544z"></path>
</svg>
