<!-- Generated by IcoMoon.io -->
<svg version="1.1" xmlns="http://www.w3.org/2000/svg" width="32" height="32" viewBox="0 0 32 32">
<title>goal</title>
<path d="M11.459 17.541l1.949 1.31 2.592-1.313 2.592 1.313 1.908-1.269-1.346-2.685q-0.051-0.103-0.154-0.167t-0.218-0.064h-5.659q-0.115 0-0.212 0.064t-0.147 0.167l-1.305 2.644zM6.967 26.667h18.033l-3.608-7.274-2.651 1.756-2.741-1.354-2.741 1.354-2.705-1.79-3.587 7.308zM3.744 28.667l7.21-14.654q0.308-0.603 0.894-0.974t1.276-0.372h1.877v-9.333h8.461l-1.167 2.333 1.167 2.333h-6.462v4.667h1.756q0.69 0 1.259 0.362t0.897 0.964l7.344 14.674h-24.513z"></path>
</svg>
