<!-- Generated by IcoMoon.io -->
<svg version="1.1" xmlns="http://www.w3.org/2000/svg" width="32" height="32" viewBox="0 0 32 32">
<title>heart_plus</title>
<path d="M14.667 27.102l-2.887-2.595q-2.721-2.474-4.591-4.328t-3.026-3.386-1.659-2.881-0.504-2.779q0-2.838 1.914-4.742t4.752-1.904q1.746 0 3.3 0.817t2.7 2.342q1.146-1.526 2.7-2.342t3.3-0.817q2.508 0 4.232 1.478t2.237 3.701h-2.103q-0.459-1.487-1.677-2.333t-2.69-0.846q-1.662 0-2.94 0.917t-2.409 2.596h-1.303q-1.123-1.692-2.446-2.603t-2.903-0.91q-1.926 0-3.296 1.323t-1.37 3.323q0 1.113 0.467 2.259t1.667 2.642 3.267 3.505 5.267 4.86q0.944-0.844 2.021-1.792t1.815-1.654l1.426 1.426q-0.759 0.705-1.809 1.631t-1.981 1.769l-1.472 1.323zM23.82 22.333v-4h-4v-2h4v-4h2v4h4v2h-4v4h-2z"></path>
</svg>
