<!-- Generated by IcoMoon.io -->
<svg version="1.1" xmlns="http://www.w3.org/2000/svg" width="32" height="32" viewBox="0 0 32 32">
<title>help</title>
<path d="M15.985 23.487q0.571 0 0.965-0.394t0.394-0.965-0.394-0.965-0.965-0.394-0.965 0.394-0.394 0.965 0.394 0.965 0.965 0.394zM16.002 28.667q-2.628 0-4.94-0.997t-4.023-2.707-2.708-4.021-0.998-4.939 0.997-4.94 2.707-4.023 4.021-2.708 4.939-0.998 4.94 0.997 4.023 2.707 2.708 4.021 0.998 4.939-0.997 4.94-2.707 4.023-4.021 2.708-4.939 0.998zM16 26.667q4.467 0 7.567-3.1t3.1-7.567-3.1-7.567-7.567-3.1-7.567 3.1-3.1 7.567 3.1 7.567 7.567 3.1zM16.108 10.292q0.923 0 1.597 0.581t0.674 1.452q0 0.733-0.431 1.313t-0.985 1.079q-0.726 0.644-1.278 1.417t-0.591 1.722q-0.013 0.364 0.256 0.61t0.628 0.246q0.385 0 0.651-0.256t0.341-0.628q0.133-0.687 0.568-1.224t0.942-1.022q0.729-0.71 1.272-1.549t0.544-1.871q0-1.585-1.249-2.604t-2.915-1.019q-1.19 0-2.244 0.527t-1.641 1.537q-0.182 0.31-0.117 0.653t0.352 0.521q0.365 0.203 0.75 0.116t0.654-0.438q0.405-0.526 0.981-0.844t1.24-0.318z"></path>
</svg>
