<!-- Generated by IcoMoon.io -->
<svg version="1.1" xmlns="http://www.w3.org/2000/svg" width="32" height="32" viewBox="0 0 32 32">
<title>home</title>
<path d="M8 25.333h4.462v-6.718q0-0.512 0.346-0.859t0.859-0.346h4.667q0.512 0 0.859 0.346t0.346 0.859v6.718h4.462v-11.795q0-0.103-0.045-0.186t-0.122-0.147l-7.59-5.705q-0.103-0.090-0.244-0.090t-0.244 0.090l-7.59 5.705q-0.077 0.064-0.122 0.147t-0.045 0.186v11.795zM6 25.333v-11.795q0-0.572 0.256-1.085t0.708-0.844l7.59-5.718q0.632-0.482 1.444-0.482t1.448 0.482l7.59 5.718q0.452 0.331 0.708 0.844t0.256 1.085v11.795q0 0.818-0.591 1.409t-1.409 0.591h-5.256q-0.512 0-0.859-0.346t-0.346-0.859v-6.718h-3.077v6.718q0 0.512-0.346 0.859t-0.859 0.346h-5.256q-0.818 0-1.409-0.591t-0.591-1.409z"></path>
</svg>
