<!-- Generated by IcoMoon.io -->
<svg version="1.1" xmlns="http://www.w3.org/2000/svg" width="32" height="32" viewBox="0 0 32 32">
<title>img</title>
<path d="M7.077 27.333q-1.010 0-1.71-0.7t-0.7-1.71v-17.846q0-1.010 0.7-1.71t1.71-0.7h17.846q1.010 0 1.71 0.7t0.7 1.71v17.846q0 1.010-0.7 1.71t-1.71 0.7h-17.846zM7.077 25.333h17.846q0.154 0 0.282-0.128t0.128-0.282v-17.846q0-0.154-0.128-0.282t-0.282-0.128h-17.846q-0.154 0-0.282 0.128t-0.128 0.282v17.846q0 0.154 0.128 0.282t0.282 0.128zM6.667 25.333v0zM10.205 22.333h11.692q0.362 0 0.536-0.328t-0.054-0.636l-3.179-4.259q-0.187-0.241-0.482-0.241t-0.482 0.241l-3.261 4.249-2.185-2.8q-0.187-0.228-0.476-0.228t-0.476 0.241l-2.103 2.797q-0.241 0.308-0.067 0.636t0.536 0.328z"></path>
</svg>
