<!-- Generated by IcoMoon.io -->
<svg version="1.1" xmlns="http://www.w3.org/2000/svg" width="32" height="32" viewBox="0 0 32 32">
<title>info</title>
<path d="M16 22.333q0.425 0 0.712-0.288t0.287-0.712v-5.667q0-0.425-0.288-0.712t-0.713-0.287-0.712 0.287-0.287 0.712v5.667q0 0.425 0.288 0.712t0.713 0.288zM16 12.385q0.458 0 0.767-0.31t0.31-0.767-0.31-0.767-0.767-0.31-0.767 0.31-0.31 0.767 0.31 0.767 0.767 0.31zM16.002 28.667q-2.628 0-4.94-0.997t-4.023-2.707-2.708-4.021-0.998-4.939 0.997-4.94 2.707-4.023 4.021-2.708 4.939-0.998 4.94 0.997 4.023 2.707 2.708 4.021 0.998 4.939-0.997 4.94-2.707 4.023-4.021 2.708-4.939 0.998zM16 26.667q4.467 0 7.567-3.1t3.1-7.567-3.1-7.567-7.567-3.1-7.567 3.1-3.1 7.567 3.1 7.567 7.567 3.1z"></path>
</svg>
