<!-- Generated by IcoMoon.io -->
<svg version="1.1" xmlns="http://www.w3.org/2000/svg" width="32" height="32" viewBox="0 0 32 32">
<title>key</title>
<path d="M9.333 18.154q-0.888 0-1.521-0.633t-0.633-1.521 0.633-1.521 1.521-0.633 1.521 0.633 0.633 1.521-0.633 1.521-1.521 0.633zM9.333 23.333q-3.056 0-5.194-2.138t-2.139-5.192 2.139-5.195 5.194-2.141q2.144 0 3.877 1.106t2.646 2.894h11.5q0.235 0 0.456 0.087t0.408 0.274l2.128 2.128q0.187 0.187 0.264 0.397t0.077 0.449-0.077 0.447-0.264 0.395l-3.528 3.515q-0.15 0.155-0.36 0.248t-0.417 0.114-0.415-0.040-0.395-0.201l-1.644-1.236-1.862 1.382q-0.154 0.121-0.328 0.174t-0.362 0.054-0.372-0.060-0.338-0.168l-1.879-1.292h-2.592q-0.913 1.774-2.646 2.887t-3.877 1.113zM9.333 21.333q1.918 0 3.322-1.159t1.832-2.841h4.59l1.921 1.328q-0.013 0-0.006 0.010t0.006-0.010l2.605-1.905 2.264 1.731 2.487-2.487-1.333-1.333h-12.533q-0.428-1.682-1.832-2.841t-3.322-1.159q-2.2 0-3.767 1.567t-1.567 3.767 1.567 3.767 3.767 1.567z"></path>
</svg>
