<!-- Generated by IcoMoon.io -->
<svg version="1.1" xmlns="http://www.w3.org/2000/svg" width="32" height="32" viewBox="0 0 32 32">
<title>leaderboard2</title>
<path d="M16 26.667q2.5 0 4.25-1.75t1.75-4.25-1.75-4.25-4.25-1.75-4.25 1.75-1.75 4.25 1.75 4.25 4.25 1.75zM12.126 13.69q0.654-0.392 1.391-0.628t1.504-0.328l-3.2-6.374h-3.333l3.638 7.331zM9.085 25.156q-0.272-0.595-0.39-1.288t-0.041-1.445q-0.308-1.097-0.286-2.233t0.37-2.231q0-0.5 0.173-0.949t0.481-0.808q-0.938 0.274-1.569 0.996t-0.708 1.686q-0.744 0.964-0.709 2.212t0.896 2.278q0 0.744 0.519 1.263t1.263 0.519zM22.915 25.156q1.605-0.287 2.678-1.535t1.073-2.955-1.073-2.955-2.678-1.535q-0.077 0-0.154 0.006t-0.154 0.019q0.656 0.954 1.024 2.090t0.368 2.374-0.368 2.374-1.024 2.090q0.077 0.013 0.154 0.019t0.154 0.006zM16 28.667q-1.308 0-2.486-0.39t-2.16-1.095q-0.326 0.092-0.671 0.122t-0.717 0.029q-2.751 0-4.692-1.941t-1.941-4.692q0-2.669 1.818-4.569t4.446-2.044q0.141 0 0.269 0.019t0.256 0.045l-4.015-8.051q-0.308-0.603 0.044-1.172t1.041-0.569h4.405q0.69 0 1.249 0.362t0.887 0.964l2.267 4.521 2.267-4.521q0.328-0.603 0.887-0.964t1.249-0.362h4.405q0.69 0 1.041 0.569t0.044 1.172l-3.969 7.972q0.115-0.026 0.237-0.038t0.25-0.013q2.641 0.164 4.449 2.064t1.808 4.582q0 2.785-1.941 4.726t-4.726 1.941q-0.351 0-0.7-0.029t-0.674-0.122q-0.982 0.692-2.15 1.088t-2.476 0.396zM12.126 13.69v0zM16 22.3l-1.531 1.156q-0.187 0.141-0.362 0.010t-0.108-0.338l0.582-1.905-1.518-1.090q-0.187-0.141-0.121-0.338t0.295-0.197h1.872l0.595-2.013q0.067-0.208 0.295-0.208t0.295 0.208l0.595 2.013h1.872q0.228 0 0.295 0.197t-0.121 0.338l-1.518 1.090 0.582 1.905q0.067 0.208-0.108 0.338t-0.362-0.010l-1.531-1.156zM19.874 13.69l3.672-7.331h-3.367l-2.872 5.718 0.39 0.779q0.582 0.133 1.124 0.328t1.053 0.505z"></path>
</svg>
