<!-- Generated by IcoMoon.io -->
<svg version="1.1" xmlns="http://www.w3.org/2000/svg" width="32" height="32" viewBox="0 0 32 32">
<title>leaderboard</title>
<path d="M16 26.667q2.5 0 4.25-1.75t1.75-4.25-1.75-4.25-4.25-1.75-4.25 1.75-1.75 4.25 1.75 4.25 4.25 1.75zM12.151 14.446q0.641-0.418 1.365-0.673t1.491-0.373l-3.033-6.015h-3.333l3.51 7.062zM9.636 25.246q0.023-0.223 0.104-0.494t0.235-0.573q-0.615-0.995-0.888-2.15t-0.142-2.378q0-1 0.346-1.897t0.962-1.615q-0.477 0.082-0.838 0.342t-0.515 0.622q-1.487 0.362-2.318 1.673t-0.508 2.906q0 1.487 1.038 2.526t2.526 1.038zM22.364 25.246q1.81-0.108 3.056-1.419t1.246-3.16-1.246-3.16-3.056-1.419q-0.154 0-0.308 0.013t-0.308 0.038q0.746 0.941 1.165 2.096t0.419 2.432-0.419 2.432-1.165 2.096q0.154 0.026 0.308 0.038t0.308 0.013zM16 28q-1.282 0-2.422-0.396t-2.071-1.14q-0.351 0.118-0.741 0.16t-0.8 0.042q-2.469 0-4.218-1.749t-1.749-4.218q0-2.438 1.703-4.172t4.126-1.787q0.282 0 0.538 0.038t0.513 0.090l-3.631-7.269q-0.282-0.538 0.037-1.044t0.932-0.505h3.277q0.613 0 1.114 0.323t0.791 0.862l2.6 5.174 2.6-5.174q0.29-0.538 0.791-0.862t1.114-0.323h3.277q0.613 0 0.932 0.505t0.037 1.044l-3.572 7.177q0.231-0.051 0.474-0.077t0.5-0.026q2.449 0.062 4.147 1.795t1.699 4.197q0 2.503-1.749 4.251t-4.251 1.749q-0.403 0-0.783-0.042t-0.732-0.16q-0.931 0.718-2.067 1.127t-2.418 0.409zM12.151 14.446v0zM16 22.133l-1.428 1.079q-0.174 0.115-0.323 0.004t-0.082-0.294l0.531-1.777-1.403-1.013q-0.174-0.115-0.108-0.294t0.256-0.178h1.744l0.556-1.859q0.067-0.182 0.256-0.182t0.256 0.182l0.556 1.859h1.744q0.19 0 0.256 0.178t-0.108 0.294l-1.403 1.013 0.531 1.777q0.067 0.182-0.082 0.294t-0.323-0.004l-1.428-1.079zM19.849 14.446l3.544-7.062h-3.367l-2.91 5.769 0.146 0.292q0.697 0.133 1.349 0.373t1.238 0.627z"></path>
</svg>
