<!-- Generated by IcoMoon.io -->
<svg version="1.1" xmlns="http://www.w3.org/2000/svg" width="32" height="32" viewBox="0 0 32 32">
<title>leaderboard</title>
<path d="M16 26.667q2.5 0 4.25-1.75t1.75-4.25-1.75-4.25-4.25-1.75-4.25 1.75-1.75 4.25 1.75 4.25 4.25 1.75zM12.1 12.933q0.667-0.367 1.417-0.583t1.517-0.283l-3.367-6.733h-3.333l3.767 7.6zM19.9 12.933l3.8-7.6h-3.367l-2.833 5.667 0.633 1.267q0.467 0.133 0.9 0.283t0.867 0.383zM8.533 25.067q-0.567-0.967-0.883-2.083t-0.317-2.317 0.317-2.317 0.883-2.083q-1.4 0.467-2.3 1.65t-0.9 2.75 0.9 2.75 2.3 1.65zM23.467 25.067q1.4-0.467 2.3-1.65t0.9-2.75-0.9-2.75-2.3-1.65q0.567 0.967 0.883 2.083t0.317 2.317-0.317 2.317-0.883 2.083zM16 29.333q-1.333 0-2.55-0.383t-2.25-1.050q-0.3 0.067-0.6 0.083t-0.633 0.017q-3.033 0-5.167-2.133t-2.133-5.167q0-2.9 1.933-4.967t4.767-2.3l-5.367-10.767h9.333l2.667 5.333 2.667-5.333h9.333l-5.333 10.7q2.833 0.267 4.75 2.333t1.917 4.967q0 3.067-2.133 5.2t-5.2 2.133q-0.3 0-0.617-0.017t-0.617-0.083q-1.033 0.667-2.233 1.050t-2.533 0.383zM12.1 12.933v0zM19.9 12.933v0zM13.533 24.333l0.933-3.033-2.467-1.767h3.033l0.967-3.2 0.967 3.2h3.033l-2.467 1.767 0.933 3.033-2.467-1.867-2.467 1.867z"></path>
</svg>
