<!-- Generated by IcoMoon.io -->
<svg version="1.1" xmlns="http://www.w3.org/2000/svg" width="32" height="32" viewBox="0 0 32 32">
<title>lock</title>
<path d="M8.41 28.667q-0.997 0-1.704-0.706t-0.706-1.704v-12.513q0-0.997 0.706-1.704t1.704-0.706h1.59v-2.667q0-2.497 1.751-4.249t4.249-1.751 4.249 1.751 1.751 4.249v2.667h1.59q0.997 0 1.704 0.706t0.706 1.704v12.513q0 0.997-0.706 1.704t-1.704 0.706h-15.179zM8.41 26.667h15.179q0.18 0 0.295-0.115t0.115-0.295v-12.513q0-0.179-0.115-0.295t-0.295-0.115h-15.179q-0.18 0-0.295 0.115t-0.115 0.295v12.513q0 0.18 0.115 0.295t0.295 0.115zM16 22.333q0.972 0 1.653-0.681t0.681-1.653-0.681-1.653-1.653-0.681-1.653 0.681-0.681 1.653 0.681 1.653 1.653 0.681zM12 11.333h8v-2.667q0-1.667-1.167-2.833t-2.833-1.167-2.833 1.167-1.167 2.833v2.667zM8 26.667v0z"></path>
</svg>
