<!-- Generated by IcoMoon.io -->
<svg version="1.1" xmlns="http://www.w3.org/2000/svg" width="32" height="32" viewBox="0 0 32 32">
<title>logout</title>
<path d="M7.077 27.333q-1.010 0-1.71-0.7t-0.7-1.71v-17.846q0-1.010 0.7-1.71t1.71-0.7h7.936q0.426 0 0.713 0.287t0.287 0.713-0.287 0.713-0.713 0.287h-7.936q-0.154 0-0.282 0.128t-0.128 0.282v17.846q0 0.154 0.128 0.282t0.282 0.128h7.936q0.426 0 0.713 0.287t0.287 0.713-0.287 0.713-0.713 0.287h-7.936zM23.49 17h-10.362q-0.426 0-0.713-0.287t-0.287-0.713 0.287-0.713 0.713-0.287h10.362l-2.564-2.564q-0.277-0.277-0.283-0.676t0.283-0.709 0.703-0.321 0.723 0.3l4.126 4.126q0.362 0.362 0.362 0.844t-0.362 0.844l-4.126 4.126q-0.297 0.297-0.706 0.294t-0.719-0.314q-0.29-0.31-0.279-0.713t0.3-0.692l2.544-2.544z"></path>
</svg>
