<!-- Generated by IcoMoon.io -->
<svg version="1.1" xmlns="http://www.w3.org/2000/svg" width="32" height="32" viewBox="0 0 32 32">
<title>medal</title>
<path d="M16 15.733l-2.177 1.682q-0.187 0.141-0.368 0.010t-0.114-0.338l0.828-2.723-2.205-1.687q-0.167-0.141-0.094-0.345t0.281-0.204h2.726l0.828-2.682q0.067-0.208 0.295-0.208t0.295 0.208l0.828 2.682h2.705q0.208 0 0.291 0.204t-0.083 0.345l-2.226 1.687 0.828 2.723q0.067 0.208-0.114 0.338t-0.368-0.010l-2.156-1.682zM16 27.308l-5.759 1.823q-0.59 0.208-1.082-0.16t-0.492-0.971v-7.903q-1.267-1.323-1.967-3.059t-0.7-3.705q0-4.185 2.908-7.092t7.092-2.908 7.092 2.908 2.908 7.092q0 1.969-0.7 3.705t-1.967 3.059v7.903q0 0.603-0.492 0.971t-1.082 0.16l-5.759-1.823zM16 21.333q3.333 0 5.667-2.333t2.333-5.667-2.333-5.667-5.667-2.333-5.667 2.333-2.333 5.667 2.333 5.667 5.667 2.333zM10.667 26.713l5.333-1.431 5.333 1.431v-4.954q-1.141 0.744-2.497 1.159t-2.836 0.415-2.836-0.415-2.497-1.159v4.954z"></path>
</svg>
