<!-- Generated by IcoMoon.io -->
<svg version="1.1" xmlns="http://www.w3.org/2000/svg" width="32" height="32" viewBox="0 0 32 32">
<title>setting</title>
<path d="M12.923 28.667l-0.508-4.062q-0.536-0.18-1.099-0.503t-1.006-0.692l-3.762 1.59-3.077-5.333 3.254-2.459q-0.046-0.297-0.065-0.597t-0.019-0.597q0-0.285 0.019-0.578t0.065-0.642l-3.254-2.459 3.077-5.308 3.749 1.577q0.482-0.382 1.030-0.699t1.076-0.509l0.521-4.062h6.154l0.508 4.074q0.6 0.218 1.086 0.509t0.981 0.686l3.8-1.577 3.077 5.308-3.305 2.497q0.072 0.323 0.078 0.604t0.006 0.565q0 0.272-0.013 0.553t-0.092 0.642l3.279 2.472-3.077 5.333-3.754-1.603q-0.495 0.395-1.010 0.699t-1.056 0.496l-0.508 4.074h-6.154zM14.667 26.667h2.621l0.48-3.572q1.020-0.267 1.865-0.758t1.63-1.263l3.313 1.392 1.313-2.267-2.892-2.18q0.167-0.518 0.227-1.015t0.060-1.005q0-0.521-0.060-1.005t-0.227-0.99l2.918-2.205-1.313-2.267-3.351 1.413q-0.669-0.715-1.604-1.264t-1.891-0.777l-0.421-3.572h-2.646l-0.441 3.559q-1.021 0.241-1.885 0.738t-1.649 1.282l-3.313-1.38-1.313 2.267 2.88 2.146q-0.167 0.474-0.233 0.987t-0.067 1.079q0 0.52 0.067 1.020t0.22 0.987l-2.867 2.18 1.313 2.267 3.3-1.4q0.759 0.779 1.623 1.277t1.91 0.764l0.433 3.559zM16.015 20q1.664 0 2.832-1.168t1.168-2.832-1.168-2.832-2.832-1.168q-1.685 0-2.842 1.168t-1.158 2.832 1.158 2.832 2.842 1.168z"></path>
</svg>
