<!-- Generated by IcoMoon.io -->
<svg version="1.1" xmlns="http://www.w3.org/2000/svg" width="32" height="32" viewBox="0 0 32 32">
<title>steps</title>
<path d="M7.2 13q1.223 0 2.338 0.447t2.031 1.296l12.477 11.923h1.287q0.567 0 0.95-0.383t0.383-0.95q0-0.267-0.050-0.567t-0.35-0.6l-6.1-6.1-2.367-7.133-3.274 0.805q-0.959 0.256-1.742-0.358t-0.783-1.594v-3.621l-0.933-0.467-5.12 6.854q-0.085 0.11-0.136 0.217t-0.097 0.229h1.487zM7.2 15h-1.636q0.087 0.323 0.25 0.6t0.427 0.508l10.826 9.859q0.367 0.367 0.833 0.533t0.967 0.167h2.274l-10.944-10.477q-0.605-0.605-1.386-0.897t-1.612-0.292zM18.867 28.667q-0.872 0-1.663-0.315t-1.455-0.905l-10.833-9.833q-1.341-1.233-1.505-3.010t0.915-3.238l5.146-6.867q0.426-0.574 1.132-0.76t1.355 0.165l0.946 0.467q0.533 0.277 0.814 0.75t0.281 1.047v3.659l3.3-0.851q0.756-0.203 1.446 0.186t0.946 1.124l2.218 6.674 5.782 5.782q0.564 0.564 0.769 1.215t0.205 1.377q0 1.385-0.968 2.359t-2.365 0.974h-6.467z"></path>
</svg>
