<!-- Generated by IcoMoon.io -->
<svg version="1.1" xmlns="http://www.w3.org/2000/svg" width="32" height="32" viewBox="0 0 32 32">
<title>thumb_up</title>
<path d="M24 28h-14.667v-17.333l9.333-9.333 1.667 1.667q0.233 0.233 0.383 0.633t0.15 0.767v0.467l-1.467 5.8h8.6q1.067 0 1.867 0.8t0.8 1.867v2.667q0 0.233-0.067 0.5t-0.133 0.5l-4 9.4q-0.3 0.667-1 1.133t-1.467 0.467zM12 25.333h12l4-9.333v-2.667h-12l1.8-7.333-5.8 5.8v13.533zM12 11.8v0zM9.333 10.667v2.667h-4v12h4v2.667h-6.667v-17.333h6.667z"></path>
</svg>
