<!-- Generated by IcoMoon.io -->
<svg version="1.1" xmlns="http://www.w3.org/2000/svg" width="32" height="32" viewBox="0 0 32 32">
<title>upload_file</title>
<path d="M15 18.6v4.913q0 0.426 0.287 0.713t0.713 0.287 0.713-0.287 0.287-0.713v-4.913l1.764 1.764q0.149 0.149 0.335 0.223t0.372 0.064 0.368-0.085 0.331-0.223q0.29-0.31 0.3-0.703t-0.3-0.703l-3.326-3.326q-0.187-0.187-0.395-0.264t-0.449-0.077-0.449 0.077-0.395 0.264l-3.326 3.326q-0.297 0.297-0.294 0.696t0.314 0.709q0.31 0.29 0.703 0.3t0.703-0.3l1.744-1.744zM8.41 28.667q-1.010 0-1.71-0.7t-0.7-1.71v-20.513q0-1.010 0.7-1.71t1.71-0.7h9.592q0.482 0 0.927 0.187t0.773 0.515l5.595 5.595q0.328 0.328 0.515 0.773t0.187 0.927v14.926q0 1.010-0.7 1.71t-1.71 0.7h-15.179zM18 10.128v-4.795h-9.59q-0.154 0-0.282 0.128t-0.128 0.282v20.513q0 0.154 0.128 0.282t0.282 0.128h15.179q0.154 0 0.282-0.128t0.128-0.282v-14.923h-4.795q-0.515 0-0.86-0.345t-0.345-0.86zM8 5.333v0z"></path>
</svg>
