<!-- Generated by IcoMoon.io -->
<svg version="1.1" xmlns="http://www.w3.org/2000/svg" width="32" height="32" viewBox="0 0 32 32">
<title>verified</title>
<path d="M14.6 17.421l-2.164-2.144q-0.277-0.277-0.686-0.283t-0.719 0.304q-0.29 0.29-0.29 0.703t0.29 0.703l2.726 2.726q0.362 0.362 0.844 0.362t0.844-0.362l5.526-5.526q0.297-0.297 0.294-0.696t-0.294-0.709q-0.31-0.31-0.713-0.321t-0.713 0.3l-4.944 4.944zM11.213 28.244l-1.844-3.1-3.487-0.749q-0.449-0.087-0.717-0.472t-0.214-0.833l0.341-3.587-2.372-2.713q-0.308-0.328-0.308-0.79t0.308-0.79l2.372-2.713-0.341-3.587q-0.054-0.449 0.214-0.833t0.717-0.472l3.487-0.749 1.844-3.1q0.241-0.395 0.656-0.538t0.844 0.044l3.287 1.39 3.287-1.39q0.428-0.187 0.844-0.044t0.656 0.538l1.844 3.1 3.487 0.749q0.449 0.087 0.717 0.472t0.214 0.833l-0.341 3.587 2.372 2.713q0.308 0.328 0.308 0.79t-0.308 0.79l-2.372 2.713 0.341 3.587q0.054 0.449-0.214 0.833t-0.717 0.472l-3.487 0.749-1.844 3.1q-0.241 0.395-0.656 0.538t-0.844-0.044l-3.287-1.39-3.287 1.39q-0.428 0.187-0.844 0.044t-0.656-0.538zM12.6 26.6l3.4-1.441 3.441 1.441 1.892-3.2 3.667-0.841-0.333-3.759 2.467-2.8-2.467-2.841 0.333-3.759-3.667-0.8-1.933-3.2-3.4 1.441-3.441-1.441-1.892 3.2-3.667 0.8 0.333 3.759-2.467 2.841 2.467 2.8-0.333 3.8 3.667 0.8 1.933 3.2z"></path>
</svg>
