<!-- Generated by IcoMoon.io -->
<svg version="1.1" xmlns="http://www.w3.org/2000/svg" width="32" height="32" viewBox="0 0 32 32">
<title>water_drop</title>
<path d="M16.328 25.128q0.349-0.033 0.574-0.261t0.226-0.549q0-0.375-0.246-0.594t-0.628-0.186q-1.367 0.1-2.977-0.801t-2.010-3.135q-0.067-0.341-0.286-0.536t-0.522-0.195q-0.364 0-0.606 0.273t-0.155 0.701q0.541 2.905 2.615 4.154t4.015 1.128zM15.998 28.667q-4.282 0-7.14-2.942t-2.858-7.324q0-3.103 2.483-6.801t7.517-8.060q5.033 4.362 7.517 8.060t2.483 6.801q0 4.382-2.86 7.324t-7.142 2.942zM16 26.667q3.467 0 5.733-2.35t2.267-5.917q0-2.433-2.017-5.5t-5.983-6.7q-3.967 3.633-5.983 6.7t-2.017 5.5q0 3.567 2.267 5.917t5.733 2.35z"></path>
</svg>
