<svg version="1.2" xmlns="http://www.w3.org/2000/svg" viewBox="0 0 8 9" width="8" height="9"><style></style><path fill-rule="evenodd" d="m5.4 0q0.1 0 0.1 0.1 0 0 0.1 0.1 0 0 0 0.1v2.5l2.3 5.3q0.1 0.1 0.1 0.1-0.1 0.1-0.1 0.2 0 0-0.1 0 0 0.1-0.1 0.1h-6.9q-0.1 0-0.2-0.1 0 0-0.1-0.1 0 0 0-0.1 0-0.1 0-0.1l2.2-3.7q0-0.1 0.1-0.1 0 0 0.1 0 0.1 0 0.1 0 0.1 0 0.1 0.1l0.7 1.2 1.3-2.8v-0.4l-1.8-0.9q-0.1-0.1-0.1-0.1-0.1-0.1-0.1-0.2 0 0 0.1-0.1 0-0.1 0.1-0.1l1.9-1q0 0 0 0 0 0 0 0 0.1 0 0.1 0 0 0 0 0 0.1 0 0.1 0zm-1.4 1.2l1.1 0.6v-1.1zm0.1 5q-0.1 0.1-0.1 0.2-0.1 0-0.2 0 0 0-0.1 0-0.1-0.1-0.1-0.1l-0.7-1.3-1.7 2.9h6.1l-2-4.4z"/></svg>