<svg version="1.2" xmlns="http://www.w3.org/2000/svg" viewBox="0 0 90 90" width="90" height="90"><style></style><path fill-rule="evenodd" d="m14.6 67.9c5.1-12 15.8-19.7 30.4-19.7 14.6 0 25.3 7.7 30.4 19.7 18.8-25 1-61-30.4-61-31.4 0-49.2 36-30.4 61zm75.4-22.9c0 24.8-20.2 45-45 45-24.8 0-45-20.2-45-45 0-24.8 20.2-45 45-45 24.8 0 45 20.2 45 45zm-45 10.1c-13 0-21.8 7.4-25.2 18.5 14.4 12.6 36 12.6 50.4 0-3.4-11.1-12.2-18.5-25.2-18.5zm0-38.3c12.8 0 19.2 15.5 10.2 24.5-9.1 9.1-24.6 2.6-24.6-10.1 0-8 6.4-14.4 14.4-14.4zm5.3 9.1c-4.7-4.7-12.8-1.4-12.8 5.3 0 6.6 8.1 9.9 12.8 5.2 2.9-2.9 2.9-7.6 0-10.5z"/></svg>